HIERARCHY
ROOT Hips
{
  OFFSET -33.9132 29.2015 117.021
  CHANNELS 6 Xposition Yposition Zposition Zrotation Xrotation Yrotation
  JOINT LeftUpLeg
  {
    OFFSET 8.64259 1.95398 -2.38835
    CHANNELS 3 Zrotation Xrotation Yrotation
    JOINT LeftLeg
    {
      OFFSET 43.7702 0 0
      CHANNELS 3 Zrotation Xrotation Yrotation
      JOINT LeftFoot
      {
        OFFSET 40.6238 0 0
        CHANNELS 3 Zrotation Xrotation Yrotation
        JOINT LeftToeBase
        {
          OFFSET 12.7242 0 0
          CHANNELS 3 Zrotation Xrotation Yrotation
          End Site
          {
            OFFSET 0 0 0
          }
        }
      }
    }
  }
  JOINT RightUpLeg
  {
    OFFSET -8.2249 1.95398 -2.59336
    CHANNELS 3 Zrotation Xrotation Yrotation
    JOINT RightLeg
    {
      OFFSET 43.5653 0 0
      CHANNELS 3 Zrotation Xrotation Yrotation
      JOINT RightFoot
      {
        OFFSET 40.6238 0 0
        CHANNELS 3 Zrotation Xrotation Yrotation
        JOINT RightToeBase
        {
          OFFSET 12.7242 0 0
          CHANNELS 3 Zrotation Xrotation Yrotation
          End Site
          {
            OFFSET 0 0 0
          }
        }
      }
    }
  }
  JOINT Spine
  {
    OFFSET 0.165834 0.87714 6.61349
    CHANNELS 3 Zrotation Xrotation Yrotation
    JOINT Spine1
    {
      OFFSET 7.38963 1.71661e-005 0
      CHANNELS 3 Zrotation Xrotation Yrotation
      JOINT Spine2
      {
        OFFSET 11.9445 1.14441e-005 0
        CHANNELS 3 Zrotation Xrotation Yrotation
        JOINT Spine3
        {
          OFFSET 14.7254 4.19617e-005 0
          CHANNELS 3 Zrotation Xrotation Yrotation
          JOINT Spine4
          {
            OFFSET 10.9679 0 0
            CHANNELS 3 Zrotation Xrotation Yrotation
            JOINT RightShoulder
            {
              OFFSET 2.46616 -1.6653 3.69651
              CHANNELS 3 Zrotation Xrotation Yrotation
              JOINT RightArm
              {
                OFFSET 13.0012 0 0
                CHANNELS 3 Zrotation Xrotation Yrotation
                JOINT RightForeArm
                {
                  OFFSET 28.7848 1.62311e-005 0
                  CHANNELS 3 Zrotation Xrotation Yrotation
                  JOINT RightHand
                  {
                    OFFSET 26.5688 1.62095e-005 0
                    CHANNELS 3 Zrotation Xrotation Yrotation
                    End Site
                    {
                      OFFSET 0 0 0
                    }
                  }
                }
              }
            }
            JOINT LeftShoulder
            {
              OFFSET 2.38034 -1.29275 -3.7523
              CHANNELS 3 Zrotation Xrotation Yrotation
              JOINT LeftArm
              {
                OFFSET 16.3182 6.07031e-005 0
                CHANNELS 3 Zrotation Xrotation Yrotation
                JOINT LeftForeArm
                {
                  OFFSET 27.0901 0 0
                  CHANNELS 3 Zrotation Xrotation Yrotation
                  JOINT LeftHand
                  {
                    OFFSET 24.5451 1.51738e-005 0
                    CHANNELS 3 Zrotation Xrotation Yrotation
                    End Site
                    {
                      OFFSET 0 0 0
                    }
                  }
                }
              }
            }
            JOINT Neck
            {
              OFFSET 5.0226 -0.0266342 0
              CHANNELS 3 Zrotation Xrotation Yrotation
              JOINT Head
              {
                OFFSET 6.69364 2.86102e-005 0
                CHANNELS 3 Zrotation Xrotation Yrotation
                End Site
                {
                  OFFSET 0 0 0
                }
              }
            }
          }
        }
      }
    }
  }
}
MOTION
Frames:	6
Frame Time:	0.0416667
38.2699 56.1825 16.2597 -9.77327 -52.697 -14.8202 -77.9936 67.5242 16.953 -130.307 17.2585 6.48874 102.247 28.8093 -3.01442 41.8158 2.36342 11.7859 83.2698 72.0075 163.837 -128.813 -8.7911 -5.88095 96.7218 -30.3423 -4.85821 55.2653 -11.6312 1.00506 0.576645 13.5386 -90.0088 -0.204653 1.14641 0.0410559 -11.8751 1.14712 -0.00943982 -34.4139 1.08107 0.383745 -14.4012 1.08107 0.383739 95.8092 -1.79544 -105.834 14.8801 21.2209 -50.9251 -5.32883 -42.4342 -5.46707 -79.5865 -7.68409 4.16284 -83.7009 -7.74789 79.6624 -11.5973 -26.8372 -80.4711 -7.30838 24.5574 -0.0141162 64.6735 -1.9408 -4.94467 10.0287 -1.81374 -9.21347 2.10647 0.549389 6.42387 
39.1817 53.9127 12.7347 -13.5604 -56.501 -16.7336 -76.2589 65.8048 16.1516 -133.327 13.8143 6.9115 105.498 32.8611 -0.249607 46.0201 3.53467 16.3027 78.3336 70.8604 167.12 -132.651 -10.9031 -6.32181 97.5482 -30.8348 -4.63402 53.115 -10.7073 3.44716 0.426292 13.2605 -90.2415 0.353675 0.760457 -0.436217 -11.3171 0.740516 -0.469277 -33.8539 0.856393 -0.187499 -13.8413 0.856394 -0.187493 95.314 2.91228 -111.861 15.931 20.091 -47.75 -5.4989 -44.8094 -5.57135 -68.2655 -8.77107 7.92938 -86.7391 -17.2681 75.5056 -1.21394 -28.5496 -72.8861 -9.70925 24.2793 -0.0139878 58.9484 -1.20986 -4.11646 -4.44445 0.139906 -0.428832 12.9167 0.20896 0.195421 
39.5136 52.1066 8.69821 -16.0149 -59.8785 -18.9191 -69.7339 65.0948 12.4986 -136.272 14.1325 7.37541 109.093 32.7016 -4.85617 37.9306 0.0186934 12.2226 73.4955 69.5505 169.93 -135.226 -13.6072 -6.72 99.7805 -32.5866 -4.03544 50.1161 -9.53417 4.3769 0.178622 12.9876 -90.3584 0.89858 0.221558 -0.690131 -10.7725 0.190969 -0.699223 -33.3067 0.418719 -0.591652 -13.294 0.418723 -0.591649 93.1342 2.23595 -119.763 11.572 23.1997 -41.9146 -6.00964 -50.9212 -5.91855 -61.2239 -7.23685 7.21788 -89.903 -26.436 72.24 3.69393 -30.8635 -71.4673 -10.2699 30.3893 -0.0144719 56.1892 -1.72643 -4.68218 -14.4548 -0.00237138 8.29431 20.5429 -1.39938 -6.00221 
39.6147 50.252 4.6804 -17.6538 -63.1332 -20.9735 -65.4935 63.13 9.97505 -138.281 16.0832 7.63335 110.089 34.7548 -3.55848 32.2406 -1.76639 8.57276 67.3654 67.8096 173.804 -137.599 -13.6833 -7.11561 104.111 -33.839 -0.506699 47.0667 -8.32726 3.85984 0.0828227 12.9634 -90.3325 0.946831 0.0399736 -0.645888 -10.7243 0.0115074 -0.647028 -33.2583 0.232235 -0.604021 -13.2457 0.232238 -0.60402 92.3737 3.66269 -124.602 8.85452 24.6168 -37.3027 -6.05737 -51.4413 -5.95652 -58.139 -7.65946 8.78975 -90.8808 -28.3033 71.0102 3.07103 -32.574 -73.8676 -9.48743 36.4254 -0.0149163 51.5487 -0.441161 -2.01388 -13.6166 -0.268119 10.9663 21.1993 -2.2815 -8.21933 
39.6088 48.5703 0.940662 -19.5967 -67.476 -23.0605 -63.5942 62.626 10.3225 -139.769 15.752 7.8574 115.027 34.4184 -9.5979 21.9124 -6.0082 5.48613 63.9928 65.9454 174.61 -139.772 -14.3887 -7.53355 105.918 -34.5826 0.78091 41.6006 -6.49489 6.87084 0.0635604 13.2607 -90.3368 0.351717 0.00143327 -0.653812 -11.3193 -0.0273383 -0.653262 -33.8535 0.197864 -0.623161 -13.8408 0.197865 -0.623171 90.3456 -5.32073 -120.769 6.05535 28.3 -45.734 -7.98253 -65.2422 -7.52129 -48.43 -6.71282 9.99872 -90.0199 -24.7618 71.3177 0.226284 -33.4739 -76.2469 -7.74064 44.1254 -0.0157003 35.8202 -1.00443 -4.57276 -4.87979 0.371045 8.8126 15.8838 -1.50024 -6.01405 
40.3812 47.2076 -2.52282 -6.97852 -74.3289 -12.6727 -69.9869 59.6294 12.8255 -139.783 16.6062 7.94858 115.785 34.3305 -10.8464 13.1387 -10.4345 4.57822 54.3855 67.9749 175.945 -142.52 -16.7674 -7.74019 106.567 -34.1789 2.41836 35.2086 -4.14408 7.11514 -0.496786 13.7401 -90.4378 -0.612572 -1.14897 -0.91534 -12.2833 -1.18813 -0.863893 -34.8182 -0.820771 -1.21833 -14.8056 -0.820773 -1.21832 98.1294 14.4898 -113.527 14.7749 21.0165 -46.5793 -6.05343 -51.3874 -5.94929 -41.1766 -3.28831 3.72065 -88.2862 -19.1438 72.7138 -3.15552 -33.7971 -78.1859 -6.12011 47.3737 -0.0145634 42.8766 1.4648 2.76412 6.61618 1.04392 3.68856 8.64279 0.137454 -1.55777 
